<svg width="134" height="170" viewBox="0 0 134 170" fill="none" xmlns="http://www.w3.org/2000/svg">
<g clip-path="url(#clip0_903_48780)">
<path d="M17.9719 103.164C17.9719 130.286 39.9652 152.347 67.003 152.347C94.0408 152.347 116.028 130.286 116.028 103.164C116.028 76.0432 94.0346 53.9883 67.003 53.9883C58.8281 53.9883 51.1224 56.0135 44.3429 59.5748C48.1957 68.289 56.8831 74.3772 67.003 74.3772C82.8157 74.3772 95.6338 87.2348 95.6338 103.09C95.6338 118.945 82.8157 131.803 67.003 131.803C51.1903 131.803 37.6251 118.153 38.4154 101.684L38.2734 101.635V63.3528C25.9863 72.3024 17.9781 86.8075 17.9781 103.164H17.9719Z" fill="white"/>
<path d="M42.2065 41.4095V49.5106C42.2065 51.5482 42.4782 53.5239 42.9413 55.4191C50.1777 51.734 58.3465 49.6468 67.003 49.6468C96.4241 49.6468 120.356 73.6589 120.356 103.165C120.356 132.67 96.4241 156.689 67.003 156.689C37.5819 156.689 13.6437 132.676 13.6437 103.165C13.6437 84.2621 23.4733 67.6265 38.2673 58.1071V36.8078C38.2673 16.4808 21.4543 0 0.708252 0V103.09C0.708252 139.818 30.3887 169.583 66.9968 169.583C103.605 169.583 133.292 139.818 133.292 103.09C133.292 55.9704 85.6621 23.8139 42.2065 41.4095Z" fill="white"/>
</g>
<defs>
<clipPath id="clip0_903_48780">
<rect width="132.583" height="169.583" fill="white" transform="translate(0.708252)"/>
</clipPath>
</defs>
</svg>
