<svg width="32" height="32" viewBox="0 0 32 32" fill="none" xmlns="http://www.w3.org/2000/svg">
<path d="M11.5735 16.96H13.8935V22.36C13.8935 23.16 14.8801 23.5334 15.4135 22.9334L21.0935 16.48C21.204 16.3547 21.2759 16.2001 21.3007 16.0349C21.3254 15.8696 21.3018 15.7008 21.2328 15.5486C21.1637 15.3964 21.0522 15.2675 20.9116 15.1772C20.7709 15.087 20.6072 15.0394 20.4401 15.04H18.1201V9.64002C18.1201 8.84002 17.1335 8.46669 16.6001 9.06669L10.9201 15.52C10.8096 15.6453 10.7376 15.7999 10.7129 15.9652C10.6882 16.1304 10.7118 16.2993 10.7808 16.4514C10.8498 16.6036 10.9614 16.7326 11.102 16.8228C11.2426 16.913 11.4064 16.9607 11.5735 16.96V16.96Z" stroke="white" stroke-width="1.5" stroke-miterlimit="10" stroke-linecap="round" stroke-linejoin="round"/>
<path d="M15.96 29.3334C23.324 29.3334 29.2934 23.364 29.2934 16C29.2934 8.63602 23.324 2.66669 15.96 2.66669C8.59604 2.66669 2.62671 8.63602 2.62671 16C2.62671 23.364 8.59604 29.3334 15.96 29.3334V29.3334Z" stroke="white" stroke-width="1.5" stroke-miterlimit="10" stroke-linecap="round" stroke-linejoin="round"/>
</svg>
